<mxfile host="app.diagrams.net" modified="2023-03-05T03:41:04.692Z" agent="5.0 (Windows NT 10.0; Win64; x64) AppleWebKit/537.36 (KHTML, like Gecko) Chrome/110.0.0.0 Safari/537.36" etag="k95wg2aMTA6zbAjDgZzE" version="20.2.8" type="github">
  <diagram id="MPQhajTVv7qyNH_p3gzT" name="Page-1">
    <mxGraphModel dx="1038" dy="939" grid="0" gridSize="10" guides="1" tooltips="1" connect="1" arrows="1" fold="1" page="0" pageScale="1" pageWidth="827" pageHeight="1169" math="0" shadow="0">
      <root>
        <mxCell id="0" />
        <mxCell id="1" parent="0" />
        <mxCell id="3dB0Px-Bg8YaZgLlnt9_-26" value="" style="rounded=0;whiteSpace=wrap;html=1;fillColor=#ffe6cc;strokeColor=#d79b00;" vertex="1" parent="1">
          <mxGeometry x="536" y="14" width="228" height="336" as="geometry" />
        </mxCell>
        <mxCell id="3dB0Px-Bg8YaZgLlnt9_-14" value="" style="rounded=0;whiteSpace=wrap;html=1;fillColor=#fff2cc;strokeColor=none;" vertex="1" parent="1">
          <mxGeometry x="270.5" y="14" width="251" height="336" as="geometry" />
        </mxCell>
        <mxCell id="3dB0Px-Bg8YaZgLlnt9_-8" style="edgeStyle=orthogonalEdgeStyle;rounded=0;orthogonalLoop=1;jettySize=auto;html=1;exitX=1;exitY=0.5;exitDx=0;exitDy=0;entryX=0.5;entryY=1;entryDx=0;entryDy=0;" edge="1" parent="1" source="3dB0Px-Bg8YaZgLlnt9_-1" target="3dB0Px-Bg8YaZgLlnt9_-7">
          <mxGeometry relative="1" as="geometry" />
        </mxCell>
        <mxCell id="3dB0Px-Bg8YaZgLlnt9_-1" value="UI Image" style="rounded=0;whiteSpace=wrap;html=1;fillColor=#d5e8d4;strokeColor=#82b366;" vertex="1" parent="1">
          <mxGeometry x="131" y="199" width="120" height="94" as="geometry" />
        </mxCell>
        <mxCell id="3dB0Px-Bg8YaZgLlnt9_-4" style="edgeStyle=orthogonalEdgeStyle;rounded=0;orthogonalLoop=1;jettySize=auto;html=1;exitX=1;exitY=0.5;exitDx=0;exitDy=0;" edge="1" parent="1" source="3dB0Px-Bg8YaZgLlnt9_-2" target="3dB0Px-Bg8YaZgLlnt9_-3">
          <mxGeometry relative="1" as="geometry" />
        </mxCell>
        <mxCell id="3dB0Px-Bg8YaZgLlnt9_-2" value="Context" style="rounded=0;whiteSpace=wrap;html=1;fillColor=#d5e8d4;strokeColor=#82b366;" vertex="1" parent="1">
          <mxGeometry x="131" y="55" width="120" height="94" as="geometry" />
        </mxCell>
        <mxCell id="3dB0Px-Bg8YaZgLlnt9_-11" style="edgeStyle=orthogonalEdgeStyle;rounded=0;orthogonalLoop=1;jettySize=auto;html=1;exitX=1;exitY=0.75;exitDx=0;exitDy=0;entryX=0;entryY=0.5;entryDx=0;entryDy=0;" edge="1" parent="1" source="3dB0Px-Bg8YaZgLlnt9_-3" target="3dB0Px-Bg8YaZgLlnt9_-9">
          <mxGeometry relative="1" as="geometry" />
        </mxCell>
        <mxCell id="3dB0Px-Bg8YaZgLlnt9_-3" value="LSTM" style="rounded=0;whiteSpace=wrap;html=1;" vertex="1" parent="1">
          <mxGeometry x="300" y="72" width="120" height="60" as="geometry" />
        </mxCell>
        <mxCell id="3dB0Px-Bg8YaZgLlnt9_-6" style="edgeStyle=orthogonalEdgeStyle;rounded=0;orthogonalLoop=1;jettySize=auto;html=1;exitX=1;exitY=0.25;exitDx=0;exitDy=0;entryX=0.5;entryY=0;entryDx=0;entryDy=0;" edge="1" parent="1" source="3dB0Px-Bg8YaZgLlnt9_-3" target="3dB0Px-Bg8YaZgLlnt9_-3">
          <mxGeometry relative="1" as="geometry">
            <Array as="points">
              <mxPoint x="440" y="87" />
              <mxPoint x="440" y="36" />
              <mxPoint x="360" y="36" />
            </Array>
          </mxGeometry>
        </mxCell>
        <mxCell id="3dB0Px-Bg8YaZgLlnt9_-12" style="edgeStyle=orthogonalEdgeStyle;rounded=0;orthogonalLoop=1;jettySize=auto;html=1;exitX=0.5;exitY=0;exitDx=0;exitDy=0;entryX=0;entryY=0.75;entryDx=0;entryDy=0;" edge="1" parent="1" source="3dB0Px-Bg8YaZgLlnt9_-7" target="3dB0Px-Bg8YaZgLlnt9_-9">
          <mxGeometry relative="1" as="geometry">
            <Array as="points">
              <mxPoint x="449" y="246" />
              <mxPoint x="449" y="189" />
            </Array>
          </mxGeometry>
        </mxCell>
        <mxCell id="3dB0Px-Bg8YaZgLlnt9_-7" value="CNN" style="shape=trapezoid;perimeter=trapezoidPerimeter;whiteSpace=wrap;html=1;fixedSize=1;rotation=90;" vertex="1" parent="1">
          <mxGeometry x="300" y="216" width="120" height="60" as="geometry" />
        </mxCell>
        <mxCell id="3dB0Px-Bg8YaZgLlnt9_-17" style="edgeStyle=orthogonalEdgeStyle;rounded=0;orthogonalLoop=1;jettySize=auto;html=1;exitX=1;exitY=0.5;exitDx=0;exitDy=0;entryX=0;entryY=0.5;entryDx=0;entryDy=0;" edge="1" parent="1" source="3dB0Px-Bg8YaZgLlnt9_-9" target="3dB0Px-Bg8YaZgLlnt9_-16">
          <mxGeometry relative="1" as="geometry" />
        </mxCell>
        <mxCell id="3dB0Px-Bg8YaZgLlnt9_-9" value="" style="shape=delay;whiteSpace=wrap;html=1;" vertex="1" parent="1">
          <mxGeometry x="478" y="159" width="24" height="40" as="geometry" />
        </mxCell>
        <mxCell id="3dB0Px-Bg8YaZgLlnt9_-15" value="Encoder" style="text;html=1;strokeColor=none;fillColor=none;align=center;verticalAlign=middle;whiteSpace=wrap;rounded=0;" vertex="1" parent="1">
          <mxGeometry x="369" y="312" width="60" height="30" as="geometry" />
        </mxCell>
        <mxCell id="3dB0Px-Bg8YaZgLlnt9_-22" style="edgeStyle=orthogonalEdgeStyle;rounded=0;orthogonalLoop=1;jettySize=auto;html=1;exitX=1;exitY=0.5;exitDx=0;exitDy=0;entryX=0.5;entryY=1;entryDx=0;entryDy=0;" edge="1" parent="1" source="3dB0Px-Bg8YaZgLlnt9_-16" target="3dB0Px-Bg8YaZgLlnt9_-20">
          <mxGeometry relative="1" as="geometry" />
        </mxCell>
        <mxCell id="3dB0Px-Bg8YaZgLlnt9_-16" value="LSTM" style="rounded=0;whiteSpace=wrap;html=1;" vertex="1" parent="1">
          <mxGeometry x="558" y="149" width="120" height="60" as="geometry" />
        </mxCell>
        <mxCell id="3dB0Px-Bg8YaZgLlnt9_-19" style="edgeStyle=orthogonalEdgeStyle;rounded=0;orthogonalLoop=1;jettySize=auto;html=1;entryX=0.5;entryY=0;entryDx=0;entryDy=0;" edge="1" parent="1" target="3dB0Px-Bg8YaZgLlnt9_-16">
          <mxGeometry relative="1" as="geometry">
            <mxPoint x="681" y="162" as="sourcePoint" />
            <Array as="points">
              <mxPoint x="678" y="162" />
              <mxPoint x="698" y="162" />
              <mxPoint x="698" y="119" />
              <mxPoint x="618" y="119" />
            </Array>
          </mxGeometry>
        </mxCell>
        <mxCell id="3dB0Px-Bg8YaZgLlnt9_-23" style="edgeStyle=orthogonalEdgeStyle;rounded=0;orthogonalLoop=1;jettySize=auto;html=1;exitX=0.25;exitY=0;exitDx=0;exitDy=0;entryX=0;entryY=0.25;entryDx=0;entryDy=0;" edge="1" parent="1" source="3dB0Px-Bg8YaZgLlnt9_-20" target="3dB0Px-Bg8YaZgLlnt9_-3">
          <mxGeometry relative="1" as="geometry">
            <Array as="points">
              <mxPoint x="772" y="149" />
              <mxPoint x="772" y="1" />
              <mxPoint x="264" y="1" />
              <mxPoint x="264" y="87" />
            </Array>
          </mxGeometry>
        </mxCell>
        <mxCell id="3dB0Px-Bg8YaZgLlnt9_-25" style="edgeStyle=orthogonalEdgeStyle;rounded=0;orthogonalLoop=1;jettySize=auto;html=1;exitX=0.5;exitY=0;exitDx=0;exitDy=0;entryX=0;entryY=0.5;entryDx=0;entryDy=0;" edge="1" parent="1" source="3dB0Px-Bg8YaZgLlnt9_-20" target="3dB0Px-Bg8YaZgLlnt9_-24">
          <mxGeometry relative="1" as="geometry" />
        </mxCell>
        <mxCell id="3dB0Px-Bg8YaZgLlnt9_-20" value="softmax" style="rounded=0;whiteSpace=wrap;html=1;rotation=90;" vertex="1" parent="1">
          <mxGeometry x="676" y="163.5" width="120" height="31" as="geometry" />
        </mxCell>
        <mxCell id="3dB0Px-Bg8YaZgLlnt9_-24" value="next token" style="rounded=0;whiteSpace=wrap;html=1;fillColor=#e1d5e7;strokeColor=#9673a6;" vertex="1" parent="1">
          <mxGeometry x="803" y="156.5" width="111" height="45" as="geometry" />
        </mxCell>
        <mxCell id="3dB0Px-Bg8YaZgLlnt9_-27" value="Decoder" style="text;html=1;strokeColor=none;fillColor=none;align=center;verticalAlign=middle;whiteSpace=wrap;rounded=0;" vertex="1" parent="1">
          <mxGeometry x="616" y="312" width="60" height="30" as="geometry" />
        </mxCell>
        <mxCell id="3dB0Px-Bg8YaZgLlnt9_-29" value="x&lt;sub&gt;t&lt;/sub&gt;" style="text;html=1;strokeColor=none;fillColor=none;align=center;verticalAlign=middle;whiteSpace=wrap;rounded=0;" vertex="1" parent="1">
          <mxGeometry x="247" y="111" width="60" height="30" as="geometry" />
        </mxCell>
        <mxCell id="3dB0Px-Bg8YaZgLlnt9_-30" value="&lt;sub&gt;&lt;span style=&quot;font-size: 12px;&quot;&gt;q&lt;sub&gt;t&lt;/sub&gt;&lt;/span&gt;&lt;/sub&gt;" style="text;html=1;strokeColor=none;fillColor=none;align=center;verticalAlign=middle;whiteSpace=wrap;rounded=0;" vertex="1" parent="1">
          <mxGeometry x="429" y="123" width="60" height="30" as="geometry" />
        </mxCell>
        <mxCell id="3dB0Px-Bg8YaZgLlnt9_-31" value="x&lt;sub&gt;t+1&lt;/sub&gt;" style="text;html=1;strokeColor=none;fillColor=none;align=center;verticalAlign=middle;whiteSpace=wrap;rounded=0;" vertex="1" parent="1">
          <mxGeometry x="489" y="-34" width="60" height="30" as="geometry" />
        </mxCell>
        <mxCell id="3dB0Px-Bg8YaZgLlnt9_-32" value="y&lt;sub&gt;t&lt;/sub&gt;" style="text;html=1;strokeColor=none;fillColor=none;align=center;verticalAlign=middle;whiteSpace=wrap;rounded=0;" vertex="1" parent="1">
          <mxGeometry x="743" y="179" width="60" height="30" as="geometry" />
        </mxCell>
      </root>
    </mxGraphModel>
  </diagram>
</mxfile>
